<svg width="1024" height="1024" viewBox="0 0 1024 1024" fill="none" xmlns="http://www.w3.org/2000/svg">
<path d="M470 267.5C455.6 269.2 448.4 270.6 435.3 274.2L424.1 277.3L423.7 435.9C423.4 559.3 423.1 595.7 422.1 600C421.4 603 419.1 609.2 416.9 613.6C409.7 628.7 398.4 636 382.1 636C360.1 636 347.5 617.6 348.1 586.8C348.2 580.9 348.1 575.8 347.9 575.6C347.6 575.3 334.1 575 317.7 574.8L288 574.5V583C288 618.6 296.5 648.1 314.8 675.5C324.6 690.3 338.8 708 342.4 709.9C349.1 713.6 391.3 705 412.5 695.8C428 689 435.3 683.9 448.5 670.5C455.7 663.3 462.2 656 462.9 654.2C464.5 652 466 650.5 466 650.5C466 650.5 467.372 648.713 469 646C470.5 643.5 472 640 473.3 637.4C474.9 635 477.4 628.8 478.8 623.7L481.4 614.5L481.7 440.2C481.9 344.4 481.7 266.1 481.3 266.1C480.8 266.2 475.8 266.8 470 267.5Z" fill="black"/>
<path d="M507 513C507 648.6 506.7 760.6 506.3 761.9L505.7 764.3L535.1 763.6C551.3 763.2 564.6 762.8 564.7 762.7C565.4 761.9 567.2 595.9 566.7 573C566.4 556.8 566.4 496.9 566.7 440L567.3 336.5L583.4 336.8C601.1 337.1 609.1 338.4 620 343.1C637.1 350.4 647.7 359.1 655.8 372.6C663.6 385.8 664.5 389.4 664.5 409C664.4 424.1 664.2 426.2 661.8 433.2C655.5 452.1 637.8 467.8 616.5 473.6C611.6 474.9 606.2 475.5 598.3 475.5H587L586.8 500.2C586.7 513.9 586.5 528 586.5 531.7V538.5L600 539.1C607.4 539.4 616.1 540.3 619.3 540.9C638.8 545.1 656.8 561.1 664 580.8C668.1 592 669.3 602.4 668.1 615.4C665.8 639.4 655.8 657.5 637.3 671.4C623.6 681.7 608.5 687 593.1 687H585.3L586.2 692.2C586.8 695.3 587 710 586.8 727.2L586.3 757L588.9 756.4C613.5 751 643.2 738.4 663.3 724.9C678.1 715 686.2 707.5 696.6 694.3C699.3 690.9 702.9 686.5 704.5 684.4C706.2 682.3 708.9 677.9 710.6 674.6C712.3 671.2 714.6 666.7 715.8 664.5C720.1 656.6 726 639.7 727.7 630.7C729 623.9 729.4 616.1 729.4 601C729.4 582.8 729.2 579.6 727.1 572C721.2 549.8 706.7 529.2 684.1 510.9L679.7 507.3L689.9 497.4C695.9 491.6 701 485.6 702.4 482.9C703.6 480.3 705.5 477.3 706.6 476.2C710.5 472 720 451.3 722.6 441.4C725.8 429.2 726.9 407.7 725.1 395C719.2 355.2 694.7 319.3 656.5 294.4C642 285 625.3 278 605.5 272.9C587.8 268.3 581.7 267.7 543.7 267.1L507 266.5V513Z" fill="black"/>
<path d="M389 293.3C371.7 302.9 367.4 305.7 356.4 314.3C337.9 328.7 320.6 347.8 318.5 356.2C317.9 358.4 318.4 359.1 322.4 361.6C324.9 363.2 331.8 368 337.7 372.3C349.8 381.2 351.2 381.4 358.5 375.9C366.7 369.8 380.8 360.7 389.5 355.9C403.2 348.6 403.4 348.4 402.6 338.6C402.2 334.1 401.4 327.1 400.9 322.8C400.3 318.6 400 309.1 400.1 301.6C400.4 293 400.1 288 399.5 288C399 288 394.2 290.4 389 293.3Z" fill="black"/>
<path d="M476 675.7C467.6 689.7 450.6 705.8 436 713.8C427.9 718.2 415.7 723.1 401.7 727.6C396.9 729.1 393.1 730.9 393.3 731.4C394.4 734.6 428.6 750.5 441.5 753.9C448.3 755.6 465.2 759 472.1 760C475.7 760.5 479.5 761.2 480.4 761.6C481.9 762.2 482 759.4 481.9 728.9C481.8 710.5 481.5 689.4 481.1 681.9L480.5 668.2L476 675.7Z" fill="black"/>
</svg>
